<?xml version="1.0" encoding="UTF-8"?>
<!DOCTYPE svg PUBLIC "-//W3C//DTD SVG 1.1//EN" "http://www.w3.org/Graphics/SVG/1.1/DTD/svg11.dtd">
<svg version="1.1" xmlns="http://www.w3.org/2000/svg" xmlns:xlink="http://www.w3.org/1999/xlink" x="0" y="0" width="1297.101" height="1800" viewBox="0, 0, 1297.101, 1800">
  <g id="Background">
    <rect x="0" y="0" width="1297.101" height="1800" fill="#FFFFFF" fill-opacity="0"/>
  </g>
  <g id="Layer_1">
    <path d="M914.811,0.11 C964.667,5.239 1005.46,33.504 1028.953,77.503 C1032.951,85.834 1055.861,133.597 1031.729,179.555 C1009.764,221.431 957.586,245.007 901.908,235.788 C895.436,245.051 886.875,252.662 876.916,258.003 C845.093,274.831 811.714,260.252 806.799,258.003 C816.031,255.722 824.445,250.914 831.097,244.119 C840.153,234.492 845.267,221.818 845.426,208.602 C835.902,203.063 827.121,196.335 819.295,188.58 C814.435,183.748 779.946,148.704 780.418,106.661 C780.974,56.926 830.236,13.301 880.387,2.527 C899.45,-0.615 888.024,0.714 914.811,0.11 z M901.564,49.016 L846.121,92.52 L856.075,162.288 L921.473,188.551 L976.916,145.047 L966.962,75.279 L901.564,49.016 z" fill="#85DD4B"/>
    <path d="M765.839,352.03 L831.625,375.661 L788.416,423.924 L851.924,463.939 L798.885,503.261 L858.477,544.637 L802.161,580.515 L854.534,619.836 L807.493,646.772 L862.476,688.87 L806.938,724.72 L868.502,758.515 L811.992,789.505 L866.975,817.108 L823.127,859.873 L886.635,875.729 Q869.613,902.97 852.59,930.212 L908.129,912.301 Q902.575,944.013 897.021,975.753 L942.84,946.096 L952.004,1004.717 L990.77,961.952 L1016.984,1010.243 Q1029.341,980.002 1041.782,949.456 L1081.075,993.609 L1081.742,934.96 L1131.171,954.01 Q1121.174,923.464 1111.205,892.918 L1162.939,896.417 L1135.447,844.683 L1181.266,832.27 Q1166.882,810.193 1152.47,788.145 L1196.345,775.038 Q1178.989,753.294 1161.634,731.579 L1206.814,714.917 L1169.492,667.321 L1210.091,658.99 Q1195.345,639.996 1180.628,621.03 L1226.836,620.002 C1225.836,637.247 1224.281,659.657 1221.754,685.815 C1220.06,703.116 1217.811,726.108 1213.645,753.989 C1208.869,786.062 1203.648,820.912 1190.541,863.76 C1180.822,895.417 1175.13,914.023 1160.662,936.988 C1148.067,956.834 1132.405,974.558 1114.259,989.499 C1099.204,1001.89 1082.528,1012.167 1064.691,1020.045 C1046.197,1028.182 1014.901,1041.511 973.886,1037.234 C948.65,1034.289 924.41,1025.659 902.991,1011.992 C872.667,992.859 856.284,969.367 841.677,948.456 C826.104,926.023 813.617,901.599 804.55,875.84 C793.22,843.766 790.11,818.052 786.722,788.756 C784.722,771.317 783.806,756.877 782.668,702.366 C781.057,625.223 782.112,615.004 780.529,560.965 C778.641,495.93 777.058,507.954 776.808,469.993 C776.614,443.612 777.253,418.731 771.949,383.77 C769.866,370.441 767.533,359.361 765.839,352.03 z" fill="#85DD4B"/>
    <path d="M1297.101,900.388 C1296.712,753.6 1255.947,625.167 1243.423,626.417 C1234.787,627.278 1242.784,689.397 1222.596,787.7 C1205.102,872.924 1191.828,937.654 1137.9,987.639 C1130.819,994.22 1047.039,1069.613 947.209,1044.788 C869.844,1025.571 830.273,957.87 813.917,930.018 C770.264,855.652 769.986,781.064 769.486,633.804 C769.486,598.898 766.959,545.747 762.1,439.419 C759.795,389.435 757.685,344.449 725.056,313.542 C705.451,294.964 681.736,287.938 665.047,284.967 C670.328,267.473 672.01,249.09 669.989,230.928 C667.907,212.823 664.13,179.805 638.055,162.894 C621.872,152.91 602.217,150.246 583.96,155.563 C547.555,166.67 521.563,214.739 525.118,274.665 L488.101,272.804 C494.238,213.128 468.94,165.393 433.257,154.563 C410.264,147.593 389.521,157.923 385.911,159.811 C351.144,177.833 333.344,227.874 345.562,283.912 L141.681,315.624 C142.097,298.491 127.296,286.133 113.911,287.855 C100.527,289.577 89.641,304.655 93.779,320.956 L60.456,323.955 C57.984,320.206 42.6,297.574 25.855,300.268 C20.283,301.536 15.353,304.77 11.971,309.376 C-9.884,335.674 4.501,471.437 6.639,490.764 C45.949,508.179 86.16,523.483 127.102,536.611 C176.83,552.544 227.542,565.224 278.916,574.572 C257.611,627.243 239.827,681.271 225.682,736.3 L225.682,736.3 C203.282,795.672 187.262,857.259 177.892,920.021 C172.838,953.788 167.339,990.86 166.784,1033.291 C164.007,1037.373 160.647,1041.872 156.815,1046.648 C142.292,1064.837 131.212,1073.501 109.607,1092.939 C79.533,1119.987 64.371,1133.76 58.706,1145.701 C49.07,1165.695 43.794,1196.602 56.707,1204.932 C68.12,1212.347 88.725,1199.379 92.807,1196.602 C83.06,1213.596 86.226,1232.396 95.584,1239.172 C106.525,1247.086 130.601,1241.949 141.875,1219.733 C140.736,1236.034 144.124,1251.724 152.983,1255.833 C163.424,1260.693 183.529,1250.28 197.941,1225.537 C216.084,1278.099 243.344,1327.054 278.472,1370.159 C337.676,1441.943 410.181,1483.013 447.364,1500.397 L447.197,1500.536 C449.502,1501.535 451.779,1502.507 454.028,1503.312 C459.772,1506.136 465.757,1508.441 471.912,1510.199 C479.048,1512.754 485.796,1514.92 491.822,1516.753 L499.237,1700.029 L377.052,1716.691 L425.148,1735.324 L373.331,1751.985 L423.316,1770.508 Q409.431,1785.308 395.547,1800.109 L612.146,1789.002 Q609.092,1665.651 606.12,1542.328 C658.781,1556.776 713.812,1560.469 767.931,1553.186 L772.263,1688.116 L675.071,1699.946 L719.502,1720.662 L667.685,1744.71 L717.669,1755.818 L673.238,1792.862 L865.762,1787.308 Q863.929,1663.263 862.069,1539.218 C981.476,1511.81 1057.62,1457.882 1098.329,1423.059 C1298.073,1252.14 1297.351,985.112 1297.101,900.388 z M27.827,342.005 C22.856,342.005 18.802,335.951 18.802,328.481 C18.802,321.011 22.856,314.93 27.827,314.93 C32.798,314.93 36.852,320.984 36.852,328.481 C36.852,335.979 32.687,342.005 27.827,342.005 z M116.494,328.481 C111.523,328.481 107.469,322.4 107.469,314.93 C107.469,307.46 111.523,301.406 116.494,301.406 C121.465,301.406 125.519,307.46 125.519,314.93 C125.519,322.4 121.548,328.481 116.494,328.481 z M415.207,175.39 C433.053,175.396 449.685,184.423 459.416,199.382 C448.283,186.047 429.266,182.461 414.041,190.826 C398.817,199.191 391.646,217.166 396.933,233.713 C402.22,250.261 418.484,260.749 435.738,258.737 C452.993,256.725 466.408,242.778 467.746,225.458 C467.746,226.346 467.885,227.235 467.885,228.235 C467.885,257.374 444.263,280.996 415.124,280.996 C385.984,280.996 362.362,257.374 362.362,228.235 C362.362,199.095 385.984,175.473 415.124,175.473 z M574.88,1263.248 C567.466,1331.005 554.414,1450.551 495.044,1474.294 C447.836,1493.204 387.688,1444.581 350.644,1414.59 C255.201,1337.308 224.294,1232.091 210.409,1185.494 C185.417,1101.909 188.055,1038.04 190.971,967.506 C191.779,938.197 196.448,909.122 204.855,881.033 C211.242,860.456 219.49,832.798 235.402,811.998 C273.473,762.014 359.835,744.547 429.786,768.956 C506.096,795.587 551.97,868.37 558.218,937.654 C559.329,950.039 565.466,1020.156 520.036,1069.558 C490.656,1101.52 446.142,1118.126 420.067,1127.873 C395.491,1137.037 372.443,1142.341 356.892,1164.667 C355.559,1166.583 336.842,1194.047 347.867,1207.015 C354.809,1215.179 371.832,1215.624 388.826,1207.015 C370.832,1232.007 375.941,1259.11 388.132,1266.025 C397.907,1271.578 415.401,1266.025 429.092,1252.14 C422.677,1270.523 427.398,1288.573 438.811,1295.877 C452.89,1304.846 471.828,1294.155 474.911,1292.405 C492.683,1282.353 495.932,1266.164 505.457,1251.446 C515.454,1236.034 535.198,1217.845 578.351,1207.709 C578.129,1221.039 577.379,1240.255 574.88,1263.248 z M522.813,455.164 L524.895,514.868 L467.274,491.264 Q464.497,522.838 461.72,554.439 L412.43,515.562 Q406.515,541.61 400.628,567.63 L350.644,528.058 L312.461,574.572 L287.469,510.009 C385.943,514.295 481.253,474.715 547.722,401.931 L585.293,466.272 z M600.9,280.913 C577.124,280.933 556.272,265.049 549.977,242.123 C543.681,219.196 553.497,194.891 573.948,182.766 C594.4,170.642 620.434,173.693 637.527,190.219 C624.196,181.968 607.073,183.217 595.081,193.315 C583.089,203.414 578.944,220.074 584.804,234.615 C590.665,249.155 605.206,258.284 620.849,257.243 C636.491,256.203 649.695,245.228 653.578,230.04 C652.562,258.407 629.285,280.886 600.9,280.913 z" fill="#54932E"/>
  </g>
</svg>
